<?xml version="1.0" encoding="UTF-8"?>
<svg width="24px" height="24px" viewBox="0 0 24 24" version="1.1" xmlns="http://www.w3.org/2000/svg" xmlns:xlink="http://www.w3.org/1999/xlink">
    <title>location</title>
    <g id="Illustration-and-Icon" stroke="none" stroke-width="1" fill="none" fill-rule="evenodd">
        <g id="Icons" transform="translate(-400.000000, -60.000000)">
            <g id="24-px" transform="translate(79.272078, 57.479185)">
                <g id="ic_location_on" transform="translate(320.727922, 2.520815)">
                    <polygon id="Bounds" opacity="0.100000001" points="0 0 24 0 24 24 0 24"></polygon>
                    <path d="M12,2.25 C16.2842136,2.25 19.75,5.71578644 19.75,10 C19.75,10.749202 19.6447441,11.5313558 19.4434004,12.3427816 C18.9845788,14.1918568 18.0464862,16.1388284 16.7718886,18.1113897 C16.1314944,19.1024608 15.4464536,20.0367902 14.7611243,20.8875868 L14.4140397,21.3110111 L14.0273379,21.7640431 L13.863666,21.9469921 C12.9053783,23.1146703 11.2839806,23.1563667 10.2811098,22.1094824 L9.97288193,21.7642962 L9.90368592,21.6847944 C9.80313325,21.5687596 9.69699339,21.4440221 9.58596034,21.3110111 L9.23887566,20.8875868 C8.5535464,20.0367902 7.86850559,19.1024608 7.2281114,18.1113897 C5.95351378,16.1388284 5.01542121,14.1918568 4.55659965,12.3427816 C4.35525595,11.5313558 4.25,10.749202 4.25,10 C4.25,5.71578644 7.71578644,2.25 12,2.25 Z M12,3.75 C8.54421356,3.75 5.75,6.54421356 5.75,10 C5.75,10.6207625 5.83911835,11.2829984 6.01244978,11.9815332 C6.42546773,13.6460174 7.2956847,15.4521161 8.48798071,17.2973078 C9.09798166,18.2413424 9.75264994,19.1342467 10.4070298,19.9466214 L10.7367773,20.3489188 L11.1827575,20.8685945 L11.2904237,20.9888665 C11.6741172,21.4457463 12.2269361,21.4772745 12.644366,21.060045 L12.9627284,20.7024586 L13.2632227,20.3489188 L13.5929702,19.9466214 C14.2473501,19.1342467 14.9020183,18.2413424 15.5120193,17.2973078 C16.7043153,15.4521161 17.5745323,13.6460174 17.9875502,11.9815332 C18.1608816,11.2829984 18.25,10.6207625 18.25,10 C18.25,6.54421356 15.4557864,3.75 12,3.75 Z M12,6.75 C13.7942136,6.75 15.25,8.20578644 15.25,10 C15.25,11.7942136 13.7942136,13.25 12,13.25 C10.2057864,13.25 8.75,11.7942136 8.75,10 C8.75,8.20578644 10.2057864,6.75 12,6.75 Z M12,8.25 C11.0342136,8.25 10.25,9.03421356 10.25,10 C10.25,10.9657864 11.0342136,11.75 12,11.75 C12.9657864,11.75 13.75,10.9657864 13.75,10 C13.75,9.03421356 12.9657864,8.25 12,8.25 Z" id="Shape" fill="#1A1F36" fill-rule="nonzero"></path>
                </g>
            </g>
        </g>
    </g>
</svg>